<mxfile host="app.diagrams.net" modified="2020-10-14T17:00:02.023Z" agent="5.0 (Windows NT 6.3; Win64; x64) AppleWebKit/537.36 (KHTML, like Gecko) Chrome/85.0.4183.121 Safari/537.36" etag="Bjoce3X5Enyxwhu2rszk" version="13.7.9" type="github">
  <diagram id="R2lEEEUBdFMjLlhIrx00" name="Page-1">
    <mxGraphModel dx="868" dy="450" grid="1" gridSize="10" guides="1" tooltips="1" connect="1" arrows="1" fold="1" page="1" pageScale="1" pageWidth="3300" pageHeight="4681" math="0" shadow="0" extFonts="Permanent Marker^https://fonts.googleapis.com/css?family=Permanent+Marker">
      <root>
        <mxCell id="0" />
        <mxCell id="1" parent="0" />
        <mxCell id="gQS0ssksXqVUAEV0KZNm-1" value="Benutzer" style="rounded=0;whiteSpace=wrap;html=1;" vertex="1" parent="1">
          <mxGeometry x="230" y="170" width="120" height="60" as="geometry" />
        </mxCell>
        <mxCell id="gQS0ssksXqVUAEV0KZNm-2" value="hat" style="rhombus;whiteSpace=wrap;html=1;" vertex="1" parent="1">
          <mxGeometry x="420" y="160" width="80" height="80" as="geometry" />
        </mxCell>
        <mxCell id="gQS0ssksXqVUAEV0KZNm-3" value="1:1&lt;br&gt;Benutzer" style="endArrow=none;html=1;entryX=0;entryY=0.5;entryDx=0;entryDy=0;exitX=1;exitY=0.5;exitDx=0;exitDy=0;" edge="1" parent="1" source="gQS0ssksXqVUAEV0KZNm-1" target="gQS0ssksXqVUAEV0KZNm-2">
          <mxGeometry width="50" height="50" relative="1" as="geometry">
            <mxPoint x="360" y="200" as="sourcePoint" />
            <mxPoint x="450" y="210" as="targetPoint" />
            <Array as="points">
              <mxPoint x="380" y="200" />
            </Array>
          </mxGeometry>
        </mxCell>
        <mxCell id="gQS0ssksXqVUAEV0KZNm-4" value="Abbonement" style="rounded=0;whiteSpace=wrap;html=1;" vertex="1" parent="1">
          <mxGeometry x="400" y="50" width="120" height="60" as="geometry" />
        </mxCell>
        <mxCell id="gQS0ssksXqVUAEV0KZNm-7" value="1:*&lt;br&gt;Abbonement" style="endArrow=none;html=1;entryX=0;entryY=0.5;entryDx=0;entryDy=0;exitX=1;exitY=0.5;exitDx=0;exitDy=0;" edge="1" parent="1" source="gQS0ssksXqVUAEV0KZNm-25" target="gQS0ssksXqVUAEV0KZNm-4">
          <mxGeometry width="50" height="50" relative="1" as="geometry">
            <mxPoint x="400" y="250" as="sourcePoint" />
            <mxPoint x="450" y="200" as="targetPoint" />
          </mxGeometry>
        </mxCell>
        <mxCell id="gQS0ssksXqVUAEV0KZNm-9" value="Kontostand" style="rounded=0;whiteSpace=wrap;html=1;" vertex="1" parent="1">
          <mxGeometry x="40" y="40" width="120" height="60" as="geometry" />
        </mxCell>
        <mxCell id="gQS0ssksXqVUAEV0KZNm-11" value="1:*&lt;br&gt;Kontostand" style="endArrow=none;html=1;exitX=0.5;exitY=1;exitDx=0;exitDy=0;entryX=0.5;entryY=0;entryDx=0;entryDy=0;" edge="1" parent="1" source="gQS0ssksXqVUAEV0KZNm-9" target="gQS0ssksXqVUAEV0KZNm-26">
          <mxGeometry x="-0.3333" y="30" width="50" height="50" relative="1" as="geometry">
            <mxPoint x="460" y="120" as="sourcePoint" />
            <mxPoint x="460" y="160" as="targetPoint" />
            <mxPoint as="offset" />
          </mxGeometry>
        </mxCell>
        <mxCell id="gQS0ssksXqVUAEV0KZNm-12" value="1:4&lt;br&gt;Charakter" style="endArrow=none;html=1;entryX=0.5;entryY=1;entryDx=0;entryDy=0;exitX=0.5;exitY=0;exitDx=0;exitDy=0;" edge="1" parent="1" source="gQS0ssksXqVUAEV0KZNm-13" target="gQS0ssksXqVUAEV0KZNm-2">
          <mxGeometry x="0.5" y="-30" width="50" height="50" relative="1" as="geometry">
            <mxPoint x="460" y="130" as="sourcePoint" />
            <mxPoint x="450" y="200" as="targetPoint" />
            <mxPoint as="offset" />
          </mxGeometry>
        </mxCell>
        <mxCell id="gQS0ssksXqVUAEV0KZNm-13" value="" style="rounded=0;whiteSpace=wrap;html=1;" vertex="1" parent="1">
          <mxGeometry x="420" y="280" width="80" height="70" as="geometry" />
        </mxCell>
        <mxCell id="gQS0ssksXqVUAEV0KZNm-25" value="hat" style="rhombus;whiteSpace=wrap;html=1;" vertex="1" parent="1">
          <mxGeometry x="250" y="40" width="80" height="80" as="geometry" />
        </mxCell>
        <mxCell id="gQS0ssksXqVUAEV0KZNm-26" value="Edelsteinkonto" style="rhombus;whiteSpace=wrap;html=1;" vertex="1" parent="1">
          <mxGeometry x="60" y="160" width="80" height="80" as="geometry" />
        </mxCell>
        <mxCell id="gQS0ssksXqVUAEV0KZNm-28" value="1:1&lt;br&gt;Benutzer" style="endArrow=none;html=1;entryX=1;entryY=0.5;entryDx=0;entryDy=0;" edge="1" parent="1" source="gQS0ssksXqVUAEV0KZNm-1" target="gQS0ssksXqVUAEV0KZNm-26">
          <mxGeometry width="50" height="50" relative="1" as="geometry">
            <mxPoint x="310" y="150" as="sourcePoint" />
            <mxPoint x="360" y="100" as="targetPoint" />
          </mxGeometry>
        </mxCell>
        <mxCell id="gQS0ssksXqVUAEV0KZNm-29" value="1:1&lt;br&gt;Benutzer" style="endArrow=none;html=1;entryX=0.5;entryY=1;entryDx=0;entryDy=0;exitX=0.5;exitY=0;exitDx=0;exitDy=0;" edge="1" parent="1" source="gQS0ssksXqVUAEV0KZNm-1" target="gQS0ssksXqVUAEV0KZNm-25">
          <mxGeometry x="0.2" y="-30" width="50" height="50" relative="1" as="geometry">
            <mxPoint x="310" y="150" as="sourcePoint" />
            <mxPoint x="360" y="100" as="targetPoint" />
            <mxPoint as="offset" />
          </mxGeometry>
        </mxCell>
        <mxCell id="gQS0ssksXqVUAEV0KZNm-30" value="Charakter" style="rhombus;whiteSpace=wrap;html=1;" vertex="1" parent="1">
          <mxGeometry x="430" y="285" width="60" height="60" as="geometry" />
        </mxCell>
        <mxCell id="gQS0ssksXqVUAEV0KZNm-36" value="1:*&lt;br&gt;Klasse" style="endArrow=none;html=1;exitX=0;exitY=0.5;exitDx=0;exitDy=0;entryX=1;entryY=0.5;entryDx=0;entryDy=0;" edge="1" parent="1" source="gQS0ssksXqVUAEV0KZNm-30" target="gQS0ssksXqVUAEV0KZNm-39">
          <mxGeometry x="0.1429" y="-15" width="50" height="50" relative="1" as="geometry">
            <mxPoint x="290" y="355" as="sourcePoint" />
            <mxPoint x="290" y="420" as="targetPoint" />
            <mxPoint as="offset" />
          </mxGeometry>
        </mxCell>
        <mxCell id="gQS0ssksXqVUAEV0KZNm-38" value="Rasse" style="rounded=0;whiteSpace=wrap;html=1;" vertex="1" parent="1">
          <mxGeometry x="580" y="285" width="120" height="60" as="geometry" />
        </mxCell>
        <mxCell id="gQS0ssksXqVUAEV0KZNm-39" value="Rasse" style="rounded=0;whiteSpace=wrap;html=1;" vertex="1" parent="1">
          <mxGeometry x="230" y="285" width="120" height="60" as="geometry" />
        </mxCell>
        <mxCell id="gQS0ssksXqVUAEV0KZNm-41" value="1:*&lt;br&gt;Rasse" style="endArrow=none;html=1;entryX=0;entryY=0.5;entryDx=0;entryDy=0;exitX=1;exitY=0.5;exitDx=0;exitDy=0;" edge="1" parent="1" source="gQS0ssksXqVUAEV0KZNm-30" target="gQS0ssksXqVUAEV0KZNm-38">
          <mxGeometry y="15" width="50" height="50" relative="1" as="geometry">
            <mxPoint x="330" y="240" as="sourcePoint" />
            <mxPoint x="380" y="190" as="targetPoint" />
            <mxPoint as="offset" />
          </mxGeometry>
        </mxCell>
      </root>
    </mxGraphModel>
  </diagram>
</mxfile>
